<svg width="74" height="49" viewBox="0 0 74 49" fill="none" xmlns="http://www.w3.org/2000/svg">
<path d="M32 19.4968C32 18.3042 32.5067 17.1604 33.4087 16.3171C34.3107 15.4738 35.534 15 36.8096 15H38.1838C39.4594 15 40.6827 15.4738 41.5847 16.3171C42.4867 17.1604 42.9934 18.3042 42.9934 19.4968C43.044 20.47 42.8033 21.4347 42.3076 22.2458C41.8119 23.0568 41.0881 23.6702 40.245 23.9936C39.402 24.4247 38.6781 25.2426 38.1825 26.324C37.6868 27.4053 37.4461 28.6917 37.4967 29.9893M37.4967 35.985V36" stroke="url(#paint0_linear_602_96)" stroke-width="4" stroke-linecap="round" stroke-linejoin="round"/>
<path d="M37 6.125C45.0783 6.125 52.0467 11.8213 53.6192 19.6919L54.5442 24.2856L59.2617 24.6225C61.5795 24.7773 63.7523 25.7985 65.3427 27.4804C66.9331 29.1623 67.823 31.3801 67.8333 33.6875C67.8333 38.7406 63.6708 42.875 58.5833 42.875H18.5C11.6858 42.875 6.16667 37.3931 6.16667 30.625C6.16667 24.3469 10.8842 19.11 17.1433 18.4669L20.4425 18.13L21.9842 15.2206C23.4021 12.479 25.5543 10.1792 28.2036 8.57437C30.853 6.96956 33.8968 6.12199 37 6.125ZM37 5.87194e-07C28.0892 5.87194e-07 20.35 5.0225 16.4958 12.3725C11.9641 12.8589 7.7731 14.9916 4.72826 18.3607C1.68341 21.7298 -0.000529414 26.0976 1.24853e-07 30.625C1.24853e-07 40.7619 8.29417 49 18.5 49H58.5833C67.0933 49 74 42.14 74 33.6875C74 25.6025 67.6792 19.0487 59.6625 18.4975C58.6268 13.2843 55.8009 8.58988 51.6676 5.21619C47.5343 1.8425 42.3499 -0.00120124 37 5.87194e-07Z" fill="url(#paint1_linear_602_96)"/>
<defs>
<linearGradient id="paint0_linear_602_96" x1="37.5" y1="15" x2="37.5" y2="36" gradientUnits="userSpaceOnUse">
<stop stop-color="#5170D7"/>
<stop offset="1" stop-color="#3DA0BE"/>
</linearGradient>
<linearGradient id="paint1_linear_602_96" x1="37" y1="0" x2="37" y2="49" gradientUnits="userSpaceOnUse">
<stop stop-color="#5170D7"/>
<stop offset="1" stop-color="#3DA0BE"/>
</linearGradient>
</defs>
</svg>
